<svg id="Layer_1" data-name="Layer 1" xmlns="http://www.w3.org/2000/svg" viewBox="0 0 112.76 26.94"><defs><style>.cls-1{fill:#ffffff;}</style></defs><title>2dh_logo01</title><path class="cls-1" d="M339.32,429.08l1.14-1.85h1.14l-1.85,2.82Zm-.36.49.49.95-1.33,1.93H337Zm0,.51-1.92-2.85h1.14l1.5,2.34,2,2.88h-1.14Zm-8.57-2.85h1v5.22h-1Zm.5,4.25h1.59a.65.65,0,0,0,.5-.2.69.69,0,0,0,.19-.52.84.84,0,0,0-.08-.37.63.63,0,0,0-.25-.26.69.69,0,0,0-.36-.09h-1.59v-1h1.55a2,2,0,0,1,.95.21,1.53,1.53,0,0,1,.64.59,1.64,1.64,0,0,1,.23.89,1.73,1.73,0,0,1-.22.89,1.59,1.59,0,0,1-.64.59,2.12,2.12,0,0,1-1,.21h-1.55Zm4.13-4.25h1v5.22h-1Zm-9.93,2.19h3.21v.93h-3.21Zm-.63-2.19h1v5.22h-1Zm3.3,0h1v5.22h-1Zm-8.6,2.19h3.2v.93h-3.2Zm-.64-2.19h1v5.22h-1Zm3.3,0h1v5.22h-1Zm-7.12,5.3a2.19,2.19,0,0,1-1.44-.4,1.5,1.5,0,0,1-.48-1.22,1.45,1.45,0,0,1,.44-1.16,1.93,1.93,0,0,1,1.32-.39h1.49l.07.83h-1.55a.86.86,0,0,0-.6.18.67.67,0,0,0-.2.54.65.65,0,0,0,.26.59,1.35,1.35,0,0,0,.8.19,2.43,2.43,0,0,0,.88-.12.43.43,0,0,0,.29-.39l.11.73a1.42,1.42,0,0,1-.34.35,1.29,1.29,0,0,1-.46.2A2.12,2.12,0,0,1,314.73,432.53Zm1.28-3.39a1.12,1.12,0,0,0-.27-.8,1.09,1.09,0,0,0-.78-.28,1.81,1.81,0,0,0-.61.1,1.75,1.75,0,0,0-.53.26l-.75-.51a2,2,0,0,1,.78-.56,2.85,2.85,0,0,1,1.08-.2,2.53,2.53,0,0,1,1.11.23,1.62,1.62,0,0,1,.7.67,2,2,0,0,1,.25,1.05v3.35h-1Zm-8.94-4h3.32v1h-3.32Zm2.78,0h1v7.31h-1Zm1,6.34h1V434h-1Zm-5.78,0h6.34v1h-6.34Zm0,0h1V434h-1Zm0,0h.05a1.1,1.1,0,0,0,1-.52,2.47,2.47,0,0,0,.35-1.44v-4.38h1v4.47a3.13,3.13,0,0,1-.27,1.37,1.93,1.93,0,0,1-.77.87,2.35,2.35,0,0,1-1.22.3h-.15Zm47-11.24,1.15-1.86h1.14l-1.85,2.82Zm-.36.48.5.95-1.33,1.94h-1.14Zm0,.51-1.92-2.85h1.14l1.5,2.34,2,2.89h-1.14Zm-8.56-2.85h1v5.23h-1Zm.5,4.25h1.59a.66.66,0,0,0,.5-.19.77.77,0,0,0,.19-.52.76.76,0,0,0-.09-.38.64.64,0,0,0-.24-.25.74.74,0,0,0-.36-.09h-1.59v-1h1.55a2.08,2.08,0,0,1,.95.21,1.54,1.54,0,0,1,.64.6,1.82,1.82,0,0,1,0,1.77,1.49,1.49,0,0,1-.64.6,2,2,0,0,1-.95.21h-1.55Zm4.13-4.25h1v5.23h-1Zm-10.2,0h1v5.23h-1Zm.6,4.3h1.93a.61.61,0,0,0,.48-.17.65.65,0,0,0,.16-.48v0a.74.74,0,0,0-.16-.51.62.62,0,0,0-.48-.18h-1.93v-.92h1.93a.63.63,0,0,0,.41-.13.51.51,0,0,0,.14-.38.65.65,0,0,0-.14-.43.54.54,0,0,0-.4-.15h-1.94v-.93h2a1.73,1.73,0,0,1,1.13.34,1.19,1.19,0,0,1,.4,1,1.09,1.09,0,0,1-.29.79,1.38,1.38,0,0,1-.84.39,1.63,1.63,0,0,1,.91.48,1.35,1.35,0,0,1,.32.91v0a1.19,1.19,0,0,1-.43,1,1.91,1.91,0,0,1-1.22.35h-2Zm-4.22,0a1.08,1.08,0,0,0,.84-.34,1.42,1.42,0,0,0,.29-.95v-.86a1.39,1.39,0,0,0-.29-.94,1.08,1.08,0,0,0-.84-.34,1.06,1.06,0,0,0-.83.34,1.34,1.34,0,0,0-.29.94v.86a1.37,1.37,0,0,0,.29.95A1.06,1.06,0,0,0,333.93,422.71Zm0,1a2.45,2.45,0,0,1-1.16-.26,1.8,1.8,0,0,1-.74-.78,2.73,2.73,0,0,1-.25-1.23v-.85a2.71,2.71,0,0,1,.25-1.22,1.83,1.83,0,0,1,.74-.77,2.45,2.45,0,0,1,1.16-.26,2.5,2.5,0,0,1,1.17.26,1.81,1.81,0,0,1,.73.77,2.71,2.71,0,0,1,.26,1.22v.86a2.65,2.65,0,0,1-.26,1.22,1.78,1.78,0,0,1-.73.78A2.5,2.5,0,0,1,333.93,423.68Zm-5.27,0a1.51,1.51,0,0,1-.85-.23,1.39,1.39,0,0,1-.53-.66l.07-1.09a1.26,1.26,0,0,0,.12.57.81.81,0,0,0,.35.36,1.08,1.08,0,0,0,.56.13,1,1,0,0,0,.78-.31,1.26,1.26,0,0,0,.28-.88v-1.13a1.28,1.28,0,0,0-.28-.89,1,1,0,0,0-.78-.32,1.19,1.19,0,0,0-.56.13.79.79,0,0,0-.35.35,1.22,1.22,0,0,0-.12.56l-.11-1a1.81,1.81,0,0,1,.62-.71,1.51,1.51,0,0,1,.85-.25,1.7,1.7,0,0,1,1,.25,1.48,1.48,0,0,1,.6.72,2.9,2.9,0,0,1,.21,1.16v1.13a2.76,2.76,0,0,1-.21,1.14,1.52,1.52,0,0,1-.62.72A1.81,1.81,0,0,1,328.66,423.68Zm-2.34-5.3h1v7.35h-1Zm-3.19,4.25a.59.59,0,0,0,.52-.25,1.22,1.22,0,0,0,.19-.73v-1.32a1.16,1.16,0,0,0-.19-.72.61.61,0,0,0-.52-.25.72.72,0,0,0-.58.25,1.1,1.1,0,0,0-.21.72v1.32a1.15,1.15,0,0,0,.21.73A.69.69,0,0,0,323.13,422.63Zm-1.82-5.76h1v8.25h-1Zm-.79,5.76a.72.72,0,0,0,.59-.25,1.15,1.15,0,0,0,.21-.73v-1.32a1.1,1.1,0,0,0-.21-.72.75.75,0,0,0-.59-.25.63.63,0,0,0-.52.25,1.24,1.24,0,0,0-.18.72v1.32a1.29,1.29,0,0,0,.18.73A.6.6,0,0,0,320.52,422.63Zm-.21,1a1.32,1.32,0,0,1-1.12-.52,2.26,2.26,0,0,1-.4-1.44v-1.32a2.26,2.26,0,0,1,.4-1.44,1.33,1.33,0,0,1,1.12-.51,1.12,1.12,0,0,1,1,.51,2.58,2.58,0,0,1,.35,1.44v1.31a2.59,2.59,0,0,1-.35,1.45A1.1,1.1,0,0,1,320.31,423.61Zm3,0a1.1,1.1,0,0,1-1-.52,2.59,2.59,0,0,1-.35-1.45v-1.31a2.58,2.58,0,0,1,.35-1.44,1.12,1.12,0,0,1,1-.51,1.35,1.35,0,0,1,1.13.51,2.33,2.33,0,0,1,.39,1.44v1.32a2.33,2.33,0,0,1-.39,1.44A1.33,1.33,0,0,1,323.34,423.61Zm-7,0v-3.71l.12.14-2.51,3.57H313v-5.22h1v3.8l-.12-.13,2.52-3.67h.88v5.22Zm-10.66-7.31h1v7.32h-1Zm5.15,6.34h1v2.49h-1Zm-4.51,0h4.87v1h-4.87Zm3.52-6.34h1v7.32h-1ZM343.52,410a2.48,2.48,0,0,1,.25-1.18,1.51,1.51,0,0,1,.75-.7,3,3,0,0,1,1.24-.25,2.14,2.14,0,0,0,.48-.05.67.67,0,0,0,.29-.16.37.37,0,0,0,.09-.25h.95a1.34,1.34,0,0,1-.19.74,1.13,1.13,0,0,1-.57.45,2.69,2.69,0,0,1-1,.15,1.83,1.83,0,0,0-.75.13.89.89,0,0,0-.45.38,1.15,1.15,0,0,0-.16.64v2h-1Zm2.15,3.82a1,1,0,0,0,.83-.33,1.39,1.39,0,0,0,.3-.95v-.66a1.39,1.39,0,0,0-.3-.95,1,1,0,0,0-.83-.33,1.06,1.06,0,0,0-.83.33,1.39,1.39,0,0,0-.3.95v.66a1.39,1.39,0,0,0,.3.95A1.06,1.06,0,0,0,345.67,413.86Zm0,1a2.34,2.34,0,0,1-1.16-.27,1.8,1.8,0,0,1-.74-.78,2.73,2.73,0,0,1-.25-1.23v-.64l.72-1.07a1.39,1.39,0,0,1,.53-.88,1.84,1.84,0,0,1,1.1-.31,2,2,0,0,1,1.06.27,1.75,1.75,0,0,1,.67.77,3,3,0,0,1,.23,1.22v.66a2.68,2.68,0,0,1-.26,1.22,1.72,1.72,0,0,1-.74.77A2.34,2.34,0,0,1,345.67,414.84Zm-7.68-5.3H339l1.6,4.54-.57,1.11Zm4.62,0L340.39,416a1.59,1.59,0,0,1-.32.56,1.09,1.09,0,0,1-.48.3,2.41,2.41,0,0,1-.71.09h-.2v-1h.2a.78.78,0,0,0,.46-.12.92.92,0,0,0,.29-.4l1.94-5.9Zm-8.87,2.12h1.88v1h-1.88Zm1.08.9.8-.53,2.12,2.73h-1.38Zm-1.58-3h1v5.22h-1Zm1.53,2.22,1.42-2.22h1.24l-2.19,3.12Zm-4.8,3.08a1.51,1.51,0,0,1-.85-.24,1.3,1.3,0,0,1-.53-.66l.07-1.09a1.2,1.2,0,0,0,.12.57.83.83,0,0,0,.35.37,1.18,1.18,0,0,0,.55.12,1,1,0,0,0,.79-.31,1.21,1.21,0,0,0,.28-.87V411.6a1.28,1.28,0,0,0-.28-.89,1,1,0,0,0-.79-.32,1.18,1.18,0,0,0-.55.12.76.76,0,0,0-.35.36,1.19,1.19,0,0,0-.12.56l-.11-1a1.88,1.88,0,0,1,.62-.71,1.59,1.59,0,0,1,.85-.25,1.79,1.79,0,0,1,1,.25,1.62,1.62,0,0,1,.6.73,2.85,2.85,0,0,1,.21,1.15v1.14a2.83,2.83,0,0,1-.21,1.14,1.62,1.62,0,0,1-.62.72A1.83,1.83,0,0,1,330,414.84Zm-2.34-5.3h1v7.35h-1Zm-3.39,5.3a2.67,2.67,0,0,1-1.24-.27,1.83,1.83,0,0,1-.78-.8,2.74,2.74,0,0,1-.27-1.27v-.59a3.07,3.07,0,0,1,.26-1.32,1.81,1.81,0,0,1,.75-.84,2.36,2.36,0,0,1,1.19-.29,1.88,1.88,0,0,1,1.12.33,2.06,2.06,0,0,1,.71.95,4.1,4.1,0,0,1,.24,1.48v.34H322.7v-.82h2.54a1.71,1.71,0,0,0-.33-1,.9.9,0,0,0-.76-.36,1.11,1.11,0,0,0-.9.38,1.67,1.67,0,0,0-.32,1.08v.67a1.34,1.34,0,0,0,.34,1,1.27,1.27,0,0,0,1,.35,1.67,1.67,0,0,0,.62-.12,1.69,1.69,0,0,0,.55-.36l.67.68a2.53,2.53,0,0,1-.87.57A2.39,2.39,0,0,1,324.24,414.84Zm-7.44-5.3H320v1H316.8Zm-.63,0h1v5.22h-1Zm3.3,0h1v5.22h-1Zm-5.93,5.22v-3.71l.12.13-2.51,3.58h-.89v-5.22h1v3.79l-.12-.13,2.52-3.66h.89v5.22Zm-7.38-7.31h3.59v1h-3.59Zm-25.49,11.43h19.85v3.5H280.67Zm-2.29-11.58h3.68v26.27h-3.68Zm20.18,0h3.69v26.27h-3.69Zm-40.33,0h3.69v26.27h-3.69Zm2.5,22.77h5.94a6.32,6.32,0,0,0,4.5-1.51,5.57,5.57,0,0,0,1.6-4.26v-7.73a5.53,5.53,0,0,0-1.6-4.25,6.28,6.28,0,0,0-4.5-1.51h-5.94V407.3h5.83a12,12,0,0,1,5.4,1.11,7.63,7.63,0,0,1,3.41,3.21,10.28,10.28,0,0,1,1.18,5.1v7.44a10.27,10.27,0,0,1-1.18,5.09,7.6,7.6,0,0,1-3.42,3.21,12.11,12.11,0,0,1-5.41,1.11h-5.81Zm-18.78.3,9.15-12.21a8.84,8.84,0,0,0,1.24-2.18,5.68,5.68,0,0,0,.45-2.1v0a3.19,3.19,0,0,0-.93-2.44,4.24,4.24,0,0,0-5.22.08,4.38,4.38,0,0,0-1.21,2.68v0h-3.81v0a9.86,9.86,0,0,1,1.33-3.85,6.7,6.7,0,0,1,2.59-2.43,7.73,7.73,0,0,1,3.67-.85,9.07,9.07,0,0,1,4,.81,5.56,5.56,0,0,1,2.52,2.34,7.37,7.37,0,0,1,.87,3.7v0a8,8,0,0,1-.58,2.9,12,12,0,0,1-1.6,2.93l-7.61,10.34h9.94v3.5H242Zm63.7-22.92h1v7.31h-1Z" transform="translate(-241.62 -407.03)"/></svg>